<?xml version="1.0" encoding="UTF-8" standalone="no"?>
<!-- Created with Inkscape (http://www.inkscape.org/) -->

<svg
   width="146.18396mm"
   height="146.18401mm"
   viewBox="0 0 146.18396 146.18401"
   version="1.1"
   id="svg357"
   xmlns="http://www.w3.org/2000/svg"
   xmlns:svg="http://www.w3.org/2000/svg">
  <defs
     id="defs354" />
  <g
     id="layer1"
     transform="translate(-0.52877613,-0.45246146)">
    <g
       id="g1880"
       transform="matrix(3.2597168,0,0,3.2597168,252.73852,1179.1765)">
      <path
         style="fill:#2563eb;stroke-width:0.0812296"
         id="rect288"
         width="44.770653"
         height="44.7024"
         x="-77.261017"
         y="-361.46667"
         d="m -75.673517,-361.46667 h 41.595653 a 1.5875,1.5875 45 0 1 1.5875,1.5875 v 41.5274 a 1.5875,1.5875 135 0 1 -1.5875,1.5875 h -41.595653 a 1.5875,1.5875 45 0 1 -1.5875,-1.5875 l 0,-41.5274 a 1.5875,1.5875 135 0 1 1.5875,-1.5875 z" />
      <g
         id="g2047"
         transform="translate(-187.2848,-115.93823)">
        <path
           fill-rule="evenodd"
           clip-rule="evenodd"
           d="m 112.41246,-222.93506 c 0,11.046 8.954,20 20,20 11.046,0 20,-8.954 20,-20 0,-11.046 -8.954,-20 -20,-20 -11.046,0 -20,8.954 -20,20 z m 20,16 c -7.264,0 -13.321,-5.163 -14.704,-12.02 -0.326,-1.622 1.047,-2.98 2.704,-2.98 h 24 c 1.657,0 3.031,1.357 2.704,2.98 -1.384,6.858 -7.44,12.02 -14.704,12.02 z"
           fill="#ffffff"
           id="path377" />
      </g>
    </g>
  </g>
</svg>
