<?xml version="1.0" encoding="UTF-8" standalone="no"?>
<!-- Created with Inkscape (http://www.inkscape.org/) -->

<svg
   width="146.18398mm"
   height="146.18401mm"
   viewBox="0 0 146.18398 146.18401"
   version="1.1"
   id="svg357"
   inkscape:version="1.2.1 (9c6d41e, 2022-07-14)"
   sodipodi:docname="prodbackMarkOriginal.svg"
   xmlns:inkscape="http://www.inkscape.org/namespaces/inkscape"
   xmlns:sodipodi="http://sodipodi.sourceforge.net/DTD/sodipodi-0.dtd"
   xmlns="http://www.w3.org/2000/svg"
   xmlns:svg="http://www.w3.org/2000/svg">
  <sodipodi:namedview
     id="namedview359"
     pagecolor="#ffffff"
     bordercolor="#000000"
     borderopacity="0.25"
     inkscape:showpageshadow="2"
     inkscape:pageopacity="0.0"
     inkscape:pagecheckerboard="0"
     inkscape:deskcolor="#d1d1d1"
     inkscape:document-units="mm"
     showgrid="false"
     inkscape:zoom="1.1893044"
     inkscape:cx="179.5167"
     inkscape:cy="219.87643"
     inkscape:window-width="2560"
     inkscape:window-height="1387"
     inkscape:window-x="1728"
     inkscape:window-y="25"
     inkscape:window-maximized="1"
     inkscape:current-layer="layer1" />
  <defs
     id="defs354" />
  <g
     inkscape:label="Layer 1"
     inkscape:groupmode="layer"
     id="layer1"
     transform="translate(-0.52877613,-0.45246146)">
    <g
       id="g1880"
       transform="matrix(3.6545992,0,0,3.6545992,274.15717,1311.9905)">
      <g
         id="g2047"
         transform="translate(-187.2848,-115.93823)">
        <path
           fill-rule="evenodd"
           clip-rule="evenodd"
           d="m 112.41246,-222.93506 c 0,11.046 8.954,20 20,20 11.046,0 20,-8.954 20,-20 0,-11.046 -8.954,-20 -20,-20 -11.046,0 -20,8.954 -20,20 z m 20,16 c -7.264,0 -13.321,-5.163 -14.704,-12.02 -0.326,-1.622 1.047,-2.98 2.704,-2.98 h 24 c 1.657,0 3.031,1.357 2.704,2.98 -1.384,6.858 -7.44,12.02 -14.704,12.02 z"
           fill="#2563eb"
           id="path2026-2" />
      </g>
    </g>
  </g>
</svg>
