<svg width="46mm" height="14.3mm" viewBox="0 0 46 14.3" xml:space="preserve" xmlns="http://www.w3.org/2000/svg"><g aria-label="Prod" style="font-size:6.35px;font-family:Lexend;-inkscape-font-specification:'Lexend, Normal';stroke-width:.264583"><path d="M16.56 9.226V4.78h1.81q.362 0 .654.184.299.178.477.489.177.311.177.692 0 .381-.177.692-.178.311-.477.502-.292.184-.654.184h-1.124v1.702zm.686-2.362h1.112q.171 0 .31-.096.14-.101.223-.26.089-.165.089-.362 0-.197-.09-.356-.082-.158-.221-.254-.14-.095-.311-.095h-1.112zM20.421 9.226V5.892h.66V6.94l-.063-.254q.07-.241.235-.438.172-.197.387-.311.223-.115.458-.115.108 0 .203.02.101.018.159.044l-.172.71q-.076-.03-.171-.05-.09-.025-.178-.025-.172 0-.33.07-.153.063-.273.184-.115.114-.184.273-.07.152-.07.336v1.842zM24.34 9.29q-.49 0-.877-.223-.381-.229-.603-.616-.223-.394-.223-.895 0-.502.223-.89.222-.393.603-.615.387-.229.876-.229.483 0 .864.229.387.222.61.616.222.387.222.889 0 .501-.223.895-.222.387-.61.616-.38.222-.863.222zm0-.598q.298 0 .533-.146.235-.152.368-.406.133-.26.127-.584.006-.33-.127-.584-.133-.26-.368-.407-.235-.146-.534-.146-.298 0-.54.153-.234.146-.368.406-.133.254-.127.578-.006.324.127.584.134.254.368.406.242.146.54.146zM28.137 9.29q-.458 0-.82-.223-.355-.229-.565-.616-.21-.394-.21-.895 0-.502.204-.89.21-.393.565-.615.356-.229.806-.229.248 0 .477.083.235.076.419.216.184.133.286.298.108.159.108.324l-.191.013v-2.23h.654v4.7h-.654v-.794h.127q0 .152-.102.305-.101.146-.273.273-.165.127-.387.203-.216.076-.444.076zm.088-.566q.299 0 .527-.152.23-.153.356-.413.133-.267.133-.603 0-.337-.133-.597-.127-.267-.356-.42-.228-.152-.527-.152-.298 0-.527.153-.228.152-.362.419-.127.26-.127.597 0 .336.127.603.134.26.362.413.229.152.527.152z"/></g><g aria-label="Back" style="font-weight:600;font-size:6.35px;font-family:Lexend;-inkscape-font-specification:'Lexend, Semi-Bold';fill:#2563eb;stroke-width:.264583"><path d="M30.712 9.184V4.739h1.93q.445 0 .75.133.31.127.47.375.158.248.158.59 0 .381-.19.635-.191.254-.547.35l-.006-.127q.299.07.514.228.223.16.343.394.121.235.121.533 0 .33-.108.585-.108.247-.317.412-.21.165-.496.254-.28.083-.628.083zm.914-.826h1.041q.204 0 .343-.057.146-.063.223-.19.076-.127.076-.299 0-.165-.083-.28-.082-.113-.235-.17-.146-.064-.355-.064h-1.01zm0-1.816h.902q.171 0 .298-.063.127-.064.19-.172.07-.108.07-.254 0-.235-.152-.362t-.463-.127h-.845zM36.242 9.247q-.419 0-.755-.228-.337-.229-.534-.622-.196-.394-.196-.902t.196-.902q.204-.394.547-.616.342-.222.78-.222.248 0 .451.076.21.07.362.197.16.127.267.292.108.165.152.356l-.19-.032v-.82h.895v3.36h-.908v-.807l.203-.019q-.05.178-.165.337-.114.159-.285.286-.165.12-.375.197-.21.07-.445.07zm.248-.78q.254 0 .445-.121.19-.12.292-.337.108-.222.108-.514 0-.286-.108-.502-.102-.216-.292-.336-.19-.127-.445-.127-.248 0-.438.127-.184.12-.292.336-.108.216-.108.502 0 .292.108.514.108.216.292.337.19.12.438.12zM40.58 9.247q-.483 0-.864-.228-.381-.229-.603-.622-.216-.394-.216-.896 0-.501.216-.895.222-.394.603-.622.38-.23.864-.23.45 0 .825.166.375.165.584.457l-.495.597q-.089-.12-.222-.216-.134-.101-.292-.159-.153-.057-.318-.057-.26 0-.463.127-.197.121-.312.337-.114.216-.114.495 0 .267.114.483.121.216.324.343.203.127.457.127.166 0 .312-.045.146-.044.273-.14.133-.095.24-.228l.49.597q-.21.273-.597.444-.381.165-.806.165zM43.418 8.174l-.267-.743 1.588-1.606h1.187zm-.857 1.01v-4.7h.901v4.7zm2.273 0-1.206-1.518.635-.508 1.657 2.026z"/></g><path fill-rule="evenodd" clip-rule="evenodd" d="M.057 7.134a7.022 7.022 0 1 0 14.043 0 7.022 7.022 0 0 0-14.043 0zm7.022 5.618a5.268 5.268 0 0 1-5.163-4.22c-.114-.57.368-1.046.95-1.046h8.426c.582 0 1.064.476.95 1.046a5.268 5.268 0 0 1-5.163 4.22z" fill="#2563eb"/></svg>
